<!-- <svg width="283" height="64" viewBox="0 0 283 64" fill="none" 
    xmlns="http://www.w3.org/2000/svg">
    <path d="M141.04 16c-11.04 0-19 7.2-19 18s8.96 18 20 18c6.67 0 12.55-2.64 16.19-7.09l-7.65-4.42c-2.02 2.21-5.09 3.5-8.54 3.5-4.79 0-8.86-2.5-10.37-6.5h28.02c.22-1.12.35-2.28.35-3.5 0-10.79-7.96-17.99-19-17.99zm-9.46 14.5c1.25-3.99 4.67-6.5 9.45-6.5 4.79 0 8.21 2.51 9.45 6.5h-18.9zM248.72 16c-11.04 0-19 7.2-19 18s8.96 18 20 18c6.67 0 12.55-2.64 16.19-7.09l-7.65-4.42c-2.02 2.21-5.09 3.5-8.54 3.5-4.79 0-8.86-2.5-10.37-6.5h28.02c.22-1.12.35-2.28.35-3.5 0-10.79-7.96-17.99-19-17.99zm-9.45 14.5c1.25-3.99 4.67-6.5 9.45-6.5 4.79 0 8.21 2.51 9.45 6.5h-18.9zM200.24 34c0 6 3.92 10 10 10 4.12 0 7.21-1.87 8.8-4.92l7.68 4.43c-3.18 5.3-9.14 8.49-16.48 8.49-11.05 0-19-7.2-19-18s7.96-18 19-18c7.34 0 13.29 3.19 16.48 8.49l-7.68 4.43c-1.59-3.05-4.68-4.92-8.8-4.92-6.07 0-10 4-10 10zm82.48-29v46h-9V5h9zM36.95 0L73.9 64H0L36.95 0zm92.38 5l-27.71 48L73.91 5H84.3l17.32 30 17.32-30h10.39zm58.91 12v9.69c-1-.29-2.06-.49-3.2-.49-5.81 0-10 4-10 10V51h-9V17h9v9.2c0-5.08 5.91-9.2 13.2-9.2z" fill="#000"/>
</svg> -->
<svg xmlns="http://www.w3.org/2000/svg" version="1.1" xmlns:xlink="http://www.w3.org/1999/xlink" preserveAspectRatio="none" x="0px" y="0px" width="25px" height="26px" viewBox="0 0 25 26">
<defs/>

<g id="logo_vocablo">
<g id="Capa_1" transform="matrix( 0.2876434326171875, 0, 0, 0.2876434326171875, 0,0) ">
<g>
<g>
<g>
<path fill="#FFC172" stroke="none" d="
M 32.2 1.55
Q 14.9 6.2 5.9 21.7 -3.05 37.15 1.6 54.4 5.7 69.85 18.55 78.65
L 6.85 84.2 19.1 91.25 24.4 82.1
Q 38.75 89.2 54.6 84.95 71.9 80.3 80.85 64.85 89.85 49.35 85.2 32.1 80.55 14.8 65.05 5.9 49.5 -3.05 32.2 1.55
M 43.85 4.8
Q 58.7 4.8 70.05 15.45 81.45 26.1 81.45 42.5 81.45 53.85 75.55 62.7 69.6 71.6 61.25 75.75 52.8 79.9 43.7 79.9 34.65 79.9 26.15 75.5 17.65 71 11.85 62.3 6 53.6 6 42.6 6 26.2 17.55 15.5 29.05 4.8 43.85 4.8
M 57.15 42.2
Q 57.15 35.55 52.95 32.25 48.65 28.95 43.7 28.95 38.8 28.95 34.55 32.4 30.3 35.8 30.3 42.4 30.3 49.1 34.65 52.45 39.1 55.8 43.55 55.8 48.1 55.8 52.65 52.4 57.15 49 57.15 42.2 Z"/>

<path fill="#26798E" stroke="none" d="
M 70.05 15.45
Q 58.7 4.8 43.85 4.8 29.05 4.8 17.55 15.5 6 26.2 6 42.6 6 53.6 11.85 62.3 17.65 71 26.15 75.5 34.65 79.9 43.7 79.9 52.8 79.9 61.25 75.75 69.6 71.6 75.55 62.7 81.45 53.85 81.45 42.5 81.45 26.1 70.05 15.45
M 52.95 32.25
Q 57.15 35.55 57.15 42.2 57.15 49 52.65 52.4 48.1 55.8 43.55 55.8 39.1 55.8 34.65 52.45 30.3 49.1 30.3 42.4 30.3 35.8 34.55 32.4 38.8 28.95 43.7 28.95 48.65 28.95 52.95 32.25 Z"/>
</g>
</g>
</g>
</g>
</g>
</svg>
